<svg id="Layer_1" data-name="Layer 1" xmlns="http://www.w3.org/2000/svg" viewBox="0 0 173.9 160.46"><defs><style>.cls-1{fill:#aaad00;}.cls-2{fill:#fff;}</style></defs><title>ku-logo</title><rect class="cls-1" y="137.53" width="173.81" height="22.93"/><path class="cls-2" d="M164.23,10.54v75c0,13.42-8,21.43-20.37,21.43s-20.22-8-20.22-21.43V17.81a7.26,7.26,0,0,0-7.26-7.28H100.8v0H79.36a7.88,7.88,0,0,0-6.1,2.89l-37.39,46V10.54H13V125.21H35.87v-35L51,72.24l30.06,53h26.61L66.1,55.07,99.4,15.35a.77.77,0,0,1,.89-.23.79.79,0,0,1,.52.75V86.31c0,24.69,19.05,40.86,43.06,40.86s43-16.17,43-40.86V10.54Z" transform="translate(-13 -10.54)"/></svg>