<?xml version="1.0" encoding="UTF-8" standalone="no"?>
<svg
   xmlns:dc="http://purl.org/dc/elements/1.1/"
   xmlns:cc="http://creativecommons.org/ns#"
   xmlns:rdf="http://www.w3.org/1999/02/22-rdf-syntax-ns#"
   xmlns:svg="http://www.w3.org/2000/svg"
   xmlns="http://www.w3.org/2000/svg"
   xmlns:sodipodi="http://sodipodi.sourceforge.net/DTD/sodipodi-0.dtd"
   xmlns:inkscape="http://www.inkscape.org/namespaces/inkscape"
   id="Layer_1"
   data-name="Layer 1"
   viewBox="0 0 173.9 160.46"
   version="1.1"
   sodipodi:docname="ku-logo-standard.svg"
   inkscape:version="0.92.1 r15371">
  <metadata
     id="metadata4551">
    <rdf:RDF>
      <cc:Work
         rdf:about="">
        <dc:format>image/svg+xml</dc:format>
        <dc:type
           rdf:resource="http://purl.org/dc/dcmitype/StillImage" />
      </cc:Work>
    </rdf:RDF>
  </metadata>
  <sodipodi:namedview
     pagecolor="#ffffff"
     bordercolor="#666666"
     borderopacity="1"
     objecttolerance="10"
     gridtolerance="10"
     guidetolerance="10"
     inkscape:pageopacity="0"
     inkscape:pageshadow="2"
     inkscape:window-width="1920"
     inkscape:window-height="1026"
     id="namedview4549"
     showgrid="false"
     inkscape:zoom="5.0479868"
     inkscape:cx="86.949997"
     inkscape:cy="104.00186"
     inkscape:window-x="0"
     inkscape:window-y="26"
     inkscape:window-maximized="1"
     inkscape:current-layer="Layer_1" />
  <defs
     id="defs4540">
    <style
       id="style4538">.cls-1{fill:#aaad00;}.cls-2{fill:#fff;}</style>
  </defs>
  <title
     id="title4542">ku-logo</title>
  <rect
     class="cls-1"
     y="137.53"
     width="173.81"
     height="22.93"
     id="rect4544" />
  <path
     class="cls-2"
     d="M164.23,10.54v75c0,13.42-8,21.43-20.37,21.43s-20.22-8-20.22-21.43V17.81a7.26,7.26,0,0,0-7.26-7.28H100.8v0H79.36a7.88,7.88,0,0,0-6.1,2.89l-37.39,46V10.54H13V125.21H35.87v-35L51,72.24l30.06,53h26.61L66.1,55.07,99.4,15.35a.77.77,0,0,1,.89-.23.79.79,0,0,1,.52.75V86.31c0,24.69,19.05,40.86,43.06,40.86s43-16.17,43-40.86V10.54Z"
     transform="translate(-13 -10.54)"
     id="path4546"
     style="fill:#016a66;fill-opacity:1" />
</svg>
